# xmcd
#
# Track frame offsets: 
#        150
#        22725
#        40646
#        63596
#        82196
#        104225
#        128187
#        155262
#        171537
#
# Disc length: 2503 seconds
#
# Revision: 0
# Processed by: cddbd v1.5.2PL0 Copyright (c) Steve Scherf et al.
# Submitted via: ExactAudioCopy v1.0b3
#
DISCID=7609c509
DTITLE=Limboski - Live
DYEAR=2016
DGENRE=Blues
TTITLE0=W trawie
TTITLE1=Czarne serce
TTITLE2=Piosenka dla mężatki
TTITLE3=Wesołe rozmowy z otchłanią
TTITLE4=Ani ani
TTITLE5=Spacery
TTITLE6=Jezus był słaby
TTITLE7=Ja nie boję się śmierci
TTITLE8=Mięta
EXTD=
EXTT0=
EXTT1=
EXTT2=
EXTT3=
EXTT4=
EXTT5=
EXTT6=
EXTT7=
EXTT8=
PLAYORDER=
